<!-- <?xml version="1.0" encoding="UTF-8"?> -->
<svg id="Layer_4" data-name="Layer 4" xmlns="http://www.w3.org/2000/svg" xmlns:xlink="http://www.w3.org/1999/xlink" viewBox="0 0 347.773 219.853">
  <defs>
    <style>
      .cls-1 {
        fill: #6f6e69;
      }

      .cls-2 {
        stroke: #f6f5ee;
        stroke-width: 1.114px;
      }

      .cls-2, .cls-3, .cls-4, .cls-5, .cls-6, .cls-7, .cls-8, .cls-9, .cls-10 {
        fill: none;
      }

      .cls-2, .cls-6, .cls-7, .cls-8, .cls-9 {
        stroke-miterlimit: 10;
      }

      .cls-3 {
        stroke: #754c24;
      }

      .cls-3, .cls-4, .cls-5, .cls-10 {
        stroke-linecap: round;
        stroke-linejoin: round;
      }

      .cls-3, .cls-10 {
        stroke-width: 1.137px;
      }

      .cls-11 {
        fill: #fff;
      }

      .cls-12 {
        fill: #8f8d86;
      }

      .cls-13 {
        fill: #fafafa;
      }

      .cls-14 {
        fill: #374250;
      }

      .cls-15 {
        fill: #fcd0bb;
      }

      .cls-16 {
        fill: #243051;
      }

      .cls-17 {
        clip-path: url(#clippath-2);
      }

      .cls-4 {
        stroke: #fff;
        stroke-width: 1.133px;
      }

      .cls-5, .cls-8 {
        stroke: #8f8d86;
      }

      .cls-5, .cls-8, .cls-9 {
        stroke-width: 2.649px;
      }

      .cls-18 {
        fill: #455364;
      }

      .cls-19 {
        fill: #857f7b;
      }

      .cls-20 {
        clip-path: url(#clippath-1);
      }

      .cls-21 {
        clip-path: url(#clippath-4);
      }

      .cls-6 {
        stroke: #f1ab00;
        stroke-width: .283px;
      }

      .cls-22 {
        fill: #e6e6e6;
      }

      .cls-23 {
        fill: #f9ae8a;
      }

      .cls-24 {
        fill: #6fb4de;
      }

      .cls-25 {
        fill: #e88057;
      }

      .cls-7 {
        stroke: #575651;
        stroke-width: 2.162px;
      }

      .cls-26 {
        fill: #575651;
      }

      .cls-27 {
        fill: #6a6963;
      }

      .cls-28 {
        fill: #f2a62f;
      }

      .cls-29 {
        fill: #231c61;
      }

      .cls-30 {
        fill: #3a98d2;
      }

      .cls-31 {
        clip-path: url(#clippath);
      }

      .cls-32 {
        fill: #d0cfca;
        opacity: .3;
      }

      .cls-33 {
        fill: #f89a6e;
      }

      .cls-34 {
        fill: #da8f61;
      }

      .cls-9 {
        stroke: #6a6963;
      }

      .cls-35 {
        clip-path: url(#clippath-3);
      }

      .cls-10 {
        stroke: #102236;
      }

      .cls-36 {
        fill: #187336;
      }

      .cls-37 {
        fill: #fdd63b;
      }

      .cls-38 {
        fill: #f5d100;
      }

      .cls-39 {
        fill: #f6f5ee;
      }

      .cls-40 {
        fill: #de996f;
      }
    </style>
    <clipPath id="clippath">
      <rect class="cls-40" x="92.721" y="146.382" width="163.889" height="18.092"/>
    </clipPath>
    <clipPath id="clippath-1">
      <path class="cls-33" d="M98.02,64.772c-.064,3.64,2.835,6.642,6.474,6.705,3.639,.064,6.642-2.835,6.705-6.475,.064-3.64-2.835-6.642-6.474-6.705-3.639-.064-6.642,2.835-6.705,6.475Z"/>
    </clipPath>
    <clipPath id="clippath-2">
      <path class="cls-15" d="M205.299,144.031c-1.909,2.332-1.567,5.77,.765,7.679,2.332,1.909,5.77,1.567,7.679-.765,1.909-2.332,1.567-5.77-.765-7.679-2.332-1.909-5.77-1.567-7.679,.765Z"/>
    </clipPath>
    <clipPath id="clippath-3">
      <path class="cls-40" d="M115.901,216.262l9.873-25.516c.471-1.216,2.192-1.216,2.663,0l9.873,25.516h-22.408Z"/>
    </clipPath>
    <clipPath id="clippath-4">
      <path class="cls-40" d="M259.258,216.341l9.873-25.516c.471-1.216,2.192-1.216,2.662,0l9.873,25.516h-22.408Z"/>
    </clipPath>
  </defs>
  <g>
    <path class="cls-11" d="M344.299,156.886c3.725-12.073,4.595-24.92,1.925-37.269-4.178-19.319-17.638-42.708-56.479-52.8C216.21,47.709,190.677-8.167,121.892,9.628c0,0-36.914,6.708-54.384,67.789-17.47,61.081-85.925,62.12-62.355,115.304,3.852,8.693,14.225,18.175,29.118,27.132l278.949-.937c19.277-23.177,25.277-43.227,31.078-62.029Z"/>
    <g>
      <path class="cls-39" d="M278.478,113.205h-10.466v-11.449c0-5.747-4.004-10.549-9.371-11.797v-14.209h-3.852v13.94c-6.178,.557-11.022,5.743-11.022,12.067v11.786h-10.411v13.133h-.701v24.407l-18.924-.136v-29.171h-21.683v21.378h-15.213v20.767h-18.387v54.972h61.086v-.008h13.121v.008h76.598v-69.321h-30.802l.027-36.365Z"/>
      <polygon class="cls-39" points="62.518 143.419 62.518 116.091 72.762 116.091 72.762 101.475 76.614 101.475 76.614 116.091 86.052 116.091 86.052 143.419 96.642 143.419 96.642 159.791 113.517 159.791 113.517 104.019 148.75 104.019 148.75 218.892 125.791 218.892 115.9 218.892 91.013 218.892 79.518 218.892 49.486 218.892 49.486 143.419 62.518 143.419"/>
    </g>
  </g>
  <g>
    <g>
      <g>
        <path class="cls-27" d="M255.004,218.614l-160.582,.126c-6.082,.005-11.016-4.922-11.021-11.004h0l182.607-.143h0c.005,6.082-4.922,11.016-11.004,11.021Z"/>
        <path class="cls-12" d="M255.001,214.823l-160.582,.125c-4.747,.004-8.784-3.003-10.334-7.213h-.684c.005,6.083,4.939,11.009,11.021,11.004l160.582-.126c6.082-.005,11.008-4.939,11.004-11.021h-.684c-1.544,4.213-5.575,7.226-10.322,7.23Z"/>
        <path class="cls-26" d="M185.081,211.343l-20.747,.016c-2.036,.002-3.688-1.648-3.689-3.684h0l28.12-.022h0c.002,2.036-1.648,3.688-3.684,3.69Z"/>
      </g>
      <g>
        <path class="cls-12" d="M256.61,207.6l-163.812,.128-.077-98.875c-.004-5.672,4.59-10.274,10.263-10.279l143.271-.112c5.672-.005,10.274,4.59,10.279,10.263l.077,98.875Z"/>
        <rect class="cls-39" x="101.286" y="107.06" width="146.75" height="92.062"/>
        <g>
          <polygon class="cls-32" points="150.192 107.08 101.288 156.06 101.322 199.18 101.428 199.18 193.418 107.046 150.192 107.08"/>
          <polygon class="cls-32" points="120.271 199.169 141.941 199.148 233.931 107.014 212.26 107.035 120.271 199.169"/>
          <polygon class="cls-32" points="230.811 199.078 248.059 182.031 248.034 149.776 196.259 199.099 230.811 199.078"/>
        </g>
      </g>
    </g>
    <g>
      <rect class="cls-40" x="92.721" y="146.382" width="163.889" height="18.092"/>
      <g class="cls-31">
        <polygon class="cls-11" points="113.166 170.821 99.065 170.821 111.203 143.055 125.304 143.055 113.166 170.821"/>
        <polygon class="cls-11" points="143.238 170.821 129.137 170.821 141.275 143.055 155.376 143.055 143.238 170.821"/>
        <polygon class="cls-11" points="173.31 170.821 159.209 170.821 171.347 143.055 185.448 143.055 173.31 170.821"/>
        <polygon class="cls-11" points="203.382 170.821 189.281 170.821 201.419 143.055 215.52 143.055 203.382 170.821"/>
        <polygon class="cls-11" points="233.454 170.821 219.353 170.821 231.491 143.055 245.592 143.055 233.454 170.821"/>
      </g>
    </g>
  </g>
  <g id="Layer_5" data-name="Layer 5">
    <g>
      <g>
        <g>
          <path class="cls-33" d="M106.367,70.143l2.839,2.886c.617,.628,1.546,.837,2.373,.533h0c1.57-.577,1.977-2.608,.752-3.746l-2.863-2.831-3.101,3.159Z"/>
          <path class="cls-25" d="M108.395,72.204s1.775-3.659,1.073-5.22c-1.528-3.397-4.098,.769-4.098,.769l1.406,2.806,1.619,1.645Z"/>
        </g>
        <g>
          <path class="cls-33" d="M98.02,64.772c-.064,3.64,2.835,6.642,6.474,6.705,3.639,.064,6.642-2.835,6.705-6.475,.064-3.64-2.835-6.642-6.474-6.705-3.639-.064-6.642,2.835-6.705,6.475Z"/>
          <g class="cls-20">
            <path class="cls-16" d="M107.371,65.078s1.205,5.244,4.795,3.768c3.591-1.477-2.422-9.765-2.422-9.765l-8.128-3.14-7.639,5.943,.85,5.147s2.725-1.941,10.801-5.061l1.743,3.108Z"/>
            <polygon class="cls-16" points="103.431 63.635 106.845 65.734 107.878 62.526 103.431 63.635"/>
          </g>
        </g>
        <path class="cls-16" d="M107.749,66.318s5.686,15.491,12.764,8.423c6.277-6.269-3.215-10.081-5.786-10.752-1.966-.514-2.719-1.185-5.2-3.489l-4.921,.708,3.144,5.11Z"/>
        <path class="cls-33" d="M106.017,64.525c-.017,.973,.758,1.776,1.732,1.793,.973,.017,1.776-.758,1.793-1.732,.017-.973-.758-1.776-1.732-1.793-.973-.017-1.776,.758-1.793,1.732Z"/>
        <g>
          <path class="cls-37" d="M97.371,65.789s-2.598-3.948-.351-8.036c1.854-3.371,6.243-4.577,9.487-2.508,1.523,.971,2.71,2.094,3.736,5.058l-12.873,5.486Z"/>
          <path class="cls-28" d="M110.409,60.995c-.022,.012-.045,.024-.069,.035l-14.613,6.292c-.349,.148-.752-.014-.9-.363-.148-.348,.012-.744,.363-.9l14.613-6.292c.349-.148,.752,.014,.9,.363,.138,.325,.006,.696-.294,.865Z"/>
        </g>
      </g>
      <g>
        <g>
          <path class="cls-14" d="M97.094,102.624l-14.558,14.929-3.722-1.647,12.599-17.871c1.235-2.047,4.151-2.186,5.575-.266h0c.84,1.134,.883,3.677,.106,4.855Z"/>
          <path class="cls-26" d="M73.2,115.825l7.36,5.157,1.992-3.483-3.786-2.653c-1.807-1.266-4.299-.828-5.565,.979h0Z"/>
        </g>
        <g>
          <path class="cls-18" d="M107.16,93.725l-14.73,2.622,3.036,5.748h19.76s5.941-.14,3.199-6.652l-11.265-1.718Z"/>
          <path class="cls-18" d="M97.868,98.223l7.014,23.207-3.954,2.268-11.09-22.417c-1.131-2.106,.238-4.686,2.616-4.93h0c1.404-.144,4.798,.604,5.415,1.873Z"/>
          <path class="cls-26" d="M99.117,128.98l7.35-3.869-1.585-3.681-4.09,2.153c-1.953,1.028-2.702,3.444-1.675,5.397h0Z"/>
        </g>
      </g>
      <g>
        <path class="cls-24" d="M106.316,76.254s.594-2.602,1.349-3.404c.537-.571,2.471-2.394,3.533-2.786,.316-.116,.665-.08,.952,.096,1.271,.777,4.765,3.306,6.479,8.455,1.65,4.959,2.003,19.072,2.003,19.072-4.691,3.047-13.472-3.961-13.472-3.961,.225-8.794-1.946-9.24-.845-17.471Z"/>
        <g>
          <path class="cls-30" d="M105.37,94.043l6.918,.316c2.349,.136,3.392-1.623,3.504-3.102l.307-11.934-10.729,14.72Z"/>
          <g>
            <path class="cls-33" d="M99.143,92.349l-4.092-1.463c-.332-.119-.701-.055-.975,.167l-1.82,1.483c-.534,.435-.414,1.282,.22,1.552h0c.324,.138,.697,.078,.962-.154l.874-.766s2.997,1.714,4.415,1.244l.416-2.064Z"/>
            <path class="cls-24" d="M109.571,74.175l-.716,13.398-10.897,2.829,.451,4.079,13.315-1.393c.956-.064,1.835-.502,2.459-1.198,.345-.385,.527-.891,.588-1.404l1.654-13.896-6.853-2.416Z"/>
          </g>
          <g>
            <path class="cls-26" d="M91.246,97.688l15.459-2.706c.474-.083,.791-.535,.708-1.009h0c-.083-.474-.534-.791-1.008-.708l-15.459,2.706c-.474,.083-.791,.535-.708,1.009h0c.083,.474,.535,.791,1.009,.708Z"/>
            <path class="cls-26" d="M91.36,96.857c-.09,0-.18-.037-.245-.111l-9.307-10.546c-.119-.135-.107-.341,.028-.461,.135-.12,.341-.107,.461,.029l9.307,10.546c.119,.135,.106,.341-.029,.461-.062,.055-.139,.082-.216,.082Z"/>
          </g>
        </g>
      </g>
      <path class="cls-16" d="M109.445,69.914s4.408,10.602,10.437,5.318c6.029-5.284-6.575-8.33-6.575-8.33l-3.862,3.013Z"/>
    </g>
  </g>
  <g>
    <g>
      <g>
        <polygon class="cls-15" points="225.996 206.993 228.772 209.682 225.608 211.384 222.898 208.729 225.996 206.993"/>
        <path class="cls-14" d="M206.461,186.909l1.855,8.207c.371,1.643,1.085,3.222,2.112,4.669l12.208,10.968,4.828-3.933-10.424-11.038-3.819-14.556-6.76,5.682Z"/>
        <g>
          <path class="cls-39" d="M225.516,211.306l-1,3.19-1.143,1.589c-.525,.73-.506,1.72,.047,2.429l.259,.332,7.789-7.258-3.114-2.914-2.839,2.632Z"/>
          <polyline class="cls-22" points="231.546 211.611 223.696 218.926 223.067 218.252 230.918 210.937 231.546 211.611"/>
        </g>
      </g>
      <g>
        <polygon class="cls-15" points="199.302 211.986 198.261 215.462 194.686 214.504 195.732 211.09 199.302 211.986"/>
        <path class="cls-18" d="M204.095,177.754l-10.014,33.849,6.318,1.578,5.637-16.969,6.924-11.102c.352-.495,.697-1.015,.99-1.551,.554-1.015,.804-2.123,.792-3.234l-.024-2.202-10.623-.369Z"/>
        <g>
          <path class="cls-39" d="M194.893,214.169l-3.159,1.167-1.971,.068c-.906,.031-1.683,.656-1.908,1.534l-.105,.411,10.583,1.741,.406-4.277-3.846-.643Z"/>
          <polyline class="cls-22" points="198.364 219.165 187.697 217.41 187.848 216.494 198.514 218.249 198.364 219.165"/>
        </g>
      </g>
    </g>
    <g>
      <g>
        <g>
          <polygon class="cls-26" points="190.119 143.373 186.072 149.687 188.011 151.08 192.2 144.399 190.119 143.373"/>
          <path class="cls-19" d="M184.863,132.909s1.87,7.827,11.346,10.908c.274,.089,.482,.318,.52,.603,.121,.907,.122,2.866-1.974,3.447-.198,.055-.419,.014-.593-.095-1.449-.907-8.578-5.075-15.498-3.872l6.199-10.99Z"/>
          <path class="cls-26" d="M184.863,132.909s-1.738,7.807-6.199,10.99c0,0,.629-6.846,6.199-10.99Z"/>
        </g>
        <g>
          <g>
            <path class="cls-15" d="M184.753,149.278c-.293,1.437,.889,3.19,2.326,3.483,1.437,.294,2.839-.633,3.133-2.07,.294-1.437-.889-3.19-2.326-3.483-1.437-.294-2.839,.633-3.133,2.07Z"/>
            <polyline class="cls-15" points="192.357 153.495 189.551 150.563 187.718 152.819 192.357 156.219"/>
          </g>
          <path class="cls-30" d="M191.911,150.785l-2.966,4.409,8.109,7.423c.495,.141,1.011,.191,1.524,.147l10.707-1.388c1.687-.08,2.99-1.513,2.91-3.2h0c-.08-1.687,.244-4.129-1.443-4.049l-12.44,2.555-6.401-5.897Z"/>
        </g>
      </g>
      <g>
        <path class="cls-24" d="M215.925,160.902c.285-2.34-.775-4.655-2.76-5.926-.891-.571-1.775-.957-2.413-.849-2.135,.361-4.331,1.328-5.271,4.211-1.598,4.903-2.055,19.393-2.055,19.393l11.478,.391,1.02-17.22Z"/>
        <polygon class="cls-30" points="211.689 161.267 215.139 173.949 215.837 163.19 211.689 161.267"/>
      </g>
      <g>
        <g>
          <path class="cls-15" d="M225.756,186.293c1.085-.986,1.165-3.1,.178-4.185-.986-1.085-2.666-1.165-3.75-.178-1.085,.986-1.165,3.1-.178,4.185,.987,1.085,2.666,1.165,3.751,.178Z"/>
          <polyline class="cls-15" points="220.548 177.259 222.641 182.423 225.451 181.684 223.713 176.202"/>
        </g>
        <path class="cls-24" d="M220.682,181.243l5.747-1.264-3.898-13.331c-.145-.494-.378-.958-.688-1.368l-7.155-8.908c-.967-1.385-2.597-1.138-3.983-.171h0c-1.385,.967-1.724,2.873-.758,4.258l6.891,8.287,3.843,12.497Z"/>
      </g>
    </g>
    <g>
      <g>
        <path class="cls-15" d="M208.065,152.383l.218,2.01c.079,.725,.575,1.337,1.268,1.564h0c1.316,.431,2.623-.679,2.411-2.048l-.484-3.126-3.414,1.6Z"/>
        <path class="cls-23" d="M208.259,154.173s3.545-.116,3.799-3.189c.254-3.074-3.513-1.244-3.513-1.244l-.438,3.021,.153,1.413Z"/>
        <g>
          <g>
            <path class="cls-15" d="M205.299,144.031c-1.909,2.332-1.567,5.77,.765,7.679,2.332,1.909,5.77,1.567,7.679-.765,1.909-2.332,1.567-5.77-.765-7.679-2.332-1.909-5.77-1.567-7.679,.765Z"/>
            <g class="cls-17">
              <path class="cls-16" d="M211.217,149.029s-1.909,4.025,1.181,4.909c3.091,.884,3.438-7.587,3.438-7.587l-3.669-6.212-8.013-.06-.49,5.066s1.037,.941,7.792,1.52l-.24,2.363Z"/>
              <polygon class="cls-29" points="208.982 144.932 210.539 149.185 213.274 147.368 208.982 144.932"/>
            </g>
          </g>
          <path class="cls-15" d="M210.635,147.834c-.54,.659-.443,1.631,.216,2.171,.659,.54,1.631,.443,2.171-.216,.54-.659,.443-1.631-.216-2.171-.659-.54-1.631-.443-2.171,.216Z"/>
        </g>
      </g>
      <g>
        <path class="cls-38" d="M203.893,145.595s-.267-4.451,3.01-6.481c2.703-1.674,6.352-.759,7.847,2.047,.702,1.318,1.1,3.163,.636,5.713l-11.493-1.278Z"/>
        <path class="cls-6" d="M204.487,145.647l.521-2.634c.132-.668,.77-1.111,1.442-1.002h0c.663,.108,1.127,.715,1.054,1.383l-.289,2.677"/>
        <line class="cls-4" x1="215.386" y1="146.873" x2="202.885" y2="145.467"/>
      </g>
    </g>
  </g>
  <g>
    <g>
      <line class="cls-9" x1="291.686" y1="179.227" x2="278.752" y2="191.977"/>
      <line class="cls-9" x1="291.686" y1="165.601" x2="278.752" y2="178.351"/>
      <line class="cls-9" x1="291.686" y1="151.975" x2="278.752" y2="164.726"/>
      <line class="cls-9" x1="291.686" y1="138.349" x2="278.752" y2="151.1"/>
      <line class="cls-9" x1="291.686" y1="124.723" x2="278.752" y2="137.474"/>
      <line class="cls-9" x1="291.686" y1="111.097" x2="278.752" y2="123.848"/>
      <line class="cls-9" x1="291.686" y1="97.471" x2="278.752" y2="110.222"/>
      <line class="cls-9" x1="291.686" y1="83.845" x2="278.752" y2="96.596"/>
      <line class="cls-9" x1="291.686" y1="70.219" x2="278.752" y2="82.97"/>
      <line class="cls-9" x1="291.686" y1="56.593" x2="278.752" y2="69.344"/>
      <line class="cls-9" x1="291.686" y1="42.967" x2="278.752" y2="55.718"/>
      <line class="cls-9" x1="278.752" y1="178.351" x2="291.686" y2="178.351"/>
      <line class="cls-9" x1="278.752" y1="164.726" x2="291.686" y2="164.726"/>
      <line class="cls-9" x1="278.752" y1="151.1" x2="291.686" y2="151.1"/>
      <line class="cls-9" x1="278.752" y1="137.474" x2="291.686" y2="137.474"/>
      <line class="cls-9" x1="278.752" y1="123.848" x2="291.686" y2="123.848"/>
      <line class="cls-9" x1="278.752" y1="110.222" x2="291.686" y2="110.222"/>
      <line class="cls-9" x1="278.752" y1="96.596" x2="291.686" y2="96.596"/>
      <line class="cls-9" x1="278.752" y1="82.97" x2="291.686" y2="82.97"/>
      <line class="cls-9" x1="278.752" y1="69.344" x2="291.686" y2="69.344"/>
      <line class="cls-9" x1="278.752" y1="55.718" x2="291.686" y2="55.718"/>
      <line class="cls-8" x1="278.752" y1="195.67" x2="278.752" y2="45.146"/>
      <line class="cls-8" x1="291.686" y1="195.67" x2="291.686" y2="45.146"/>
      <rect class="cls-26" x="272.084" y="191.977" width="25.757" height="26.762"/>
    </g>
    <g>
      <g>
        <path class="cls-27" d="M278.258,19.659h13.463c2.374,0,4.3,1.927,4.3,4.3v16.886c0,2.374-1.927,4.3-4.3,4.3h-13.463c-2.374,0-4.301-1.927-4.301-4.301V23.96c0-2.374,1.927-4.301,4.301-4.301Z"/>
        <path class="cls-26" d="M275.968,25.805h8.666c1.799,0,3.259,1.46,3.259,3.259v5.407c0,1.799-1.46,3.259-3.259,3.259h-8.666v-11.924h0Z"/>
      </g>
      <g>
        <g id="animate">
          <line class="cls-7" x1="193.418" y1="46.538" x2="203.764" y2="76.595"/>
          <line class="cls-7" x1="186.221" y1="42.967" x2="166.044" y2="70.219"/>
          <g>
            <rect class="cls-40" x="159.607" y="60.55" width="47.998" height="47.999" rx="6.838" ry="6.838" transform="translate(227.976 281.758) rotate(-127.405)"/>
            <rect class="cls-2" x="163.971" y="64.913" width="39.272" height="39.272" rx="5.595" ry="5.595" transform="translate(227.976 281.758) rotate(-127.405)"/>
            <path class="cls-39" d="M185.376,94.723c-.54,4.048-6.682,3.229-6.143-.819,.544-4.084,6.687-3.265,6.143,.819Zm2.642-22.614l-2.411,17.013-5.165-.689c.763-5.724,1.399-11.287,2.166-17.046l5.41,.721Z"/>
          </g>
        </g>
        <g>
          <g>
            <circle class="cls-26" cx="190.466" cy="40.421" r="8.65"/>
            <path class="cls-1" d="M196.582,40.421c0,3.378-2.738,6.116-6.116,6.116s-6.116-2.738-6.116-6.116,2.738-6.116,6.116-6.116,6.116,2.738,6.116,6.116Z"/>
          </g>
          <g>
            <line class="cls-9" x1="224.385" y1="1.324" x2="224.385" y2="19.659"/>
            <line class="cls-9" x1="207.943" y1="1.324" x2="207.943" y2="19.659"/>
            <line class="cls-9" x1="240.773" y1="1.324" x2="240.773" y2="19.659"/>
            <line class="cls-9" x1="258.982" y1="1.324" x2="258.982" y2="19.659"/>
            <line class="cls-9" x1="275.968" y1="1.324" x2="275.968" y2="19.659"/>
            <line class="cls-9" x1="293.579" y1="1.324" x2="293.579" y2="19.659"/>
            <line class="cls-9" x1="310.877" y1="1.324" x2="310.877" y2="19.659"/>
            <line class="cls-9" x1="207.087" y1="19.659" x2="224.385" y2="1.324"/>
            <line class="cls-9" x1="224.385" y1="19.659" x2="241.684" y2="1.324"/>
            <line class="cls-9" x1="241.684" y1="19.659" x2="258.982" y2="1.324"/>
            <line class="cls-9" x1="258.982" y1="19.659" x2="276.281" y2="1.324"/>
            <line class="cls-9" x1="276.281" y1="19.659" x2="293.579" y2="1.324"/>
            <line class="cls-9" x1="293.579" y1="19.659" x2="310.877" y2="1.324"/>
            <polygon class="cls-5" points="190.466 19.659 331.503 19.659 312.513 1.324 205.056 1.324 190.466 19.659"/>
            <line class="cls-5" x1="190.466" y1="19.659" x2="190.466" y2="40.421"/>
          </g>
        </g>
      </g>
    </g>
  </g>
  <g>
    <g>
      <g>
        <path class="cls-40" d="M115.901,216.262l9.873-25.516c.471-1.216,2.192-1.216,2.663,0l9.873,25.516h-22.408Z"/>
        <g class="cls-35">
          <rect class="cls-13" x="118.188" y="196.233" width="17.529" height="5.416"/>
          <rect class="cls-13" x="117.23" y="206.467" width="19.826" height="5.415"/>
        </g>
      </g>
      <rect class="cls-34" x="114.097" y="216.262" width="26.129" height="2.15"/>
    </g>
    <g>
      <g>
        <path class="cls-40" d="M259.258,216.341l9.873-25.516c.471-1.216,2.192-1.216,2.662,0l9.873,25.516h-22.408Z"/>
        <g class="cls-21">
          <rect class="cls-13" x="261.545" y="196.311" width="17.529" height="5.415"/>
          <rect class="cls-13" x="260.588" y="206.546" width="19.826" height="5.415"/>
        </g>
      </g>
      <rect class="cls-34" x="257.454" y="216.341" width="26.129" height="2.15"/>
    </g>
  </g>
  <g id="Test">
    <g>
      <circle class="cls-36" cx="62.279" cy="173.615" r="20.502" transform="translate(-118.616 209.64) rotate(-81.529)"/>
      <g>
        <line class="cls-3" x1="62.279" y1="166.307" x2="62.279" y2="218.412"/>
        <line class="cls-3" x1="54.307" y1="167.369" x2="62.279" y2="176.309"/>
        <path class="cls-3" d="M69.351,175.817c-.571,.571-7.071,7.34-7.071,7.34"/>
      </g>
    </g>
    <line class="cls-10" x1=".568" y1="218.914" x2="344.47" y2="218.914"/>
  </g>
</svg>